<?xml version="1.0" encoding="UTF-8" standalone="no"?>
<svg
   height="48"
   width="48"
   version="1.1"
   id="svg1740"
   sodipodi:docname="arrow_circle_left_FILL0_wght400_GRAD0_opsz48.svg"
   inkscape:version="1.1.2 (b8e25be833, 2022-02-05)"
   xmlns:inkscape="http://www.inkscape.org/namespaces/inkscape"
   xmlns:sodipodi="http://sodipodi.sourceforge.net/DTD/sodipodi-0.dtd"
   xmlns="http://www.w3.org/2000/svg"
   xmlns:svg="http://www.w3.org/2000/svg">
  <defs
     id="defs1744" />
  <sodipodi:namedview
     id="namedview1742"
     pagecolor="#505050"
     bordercolor="#eeeeee"
     borderopacity="1"
     inkscape:pageshadow="0"
     inkscape:pageopacity="0"
     inkscape:pagecheckerboard="0"
     showgrid="false"
     inkscape:zoom="7.6455921"
     inkscape:cx="28.905544"
     inkscape:cy="15.43373"
     inkscape:window-width="1366"
     inkscape:window-height="705"
     inkscape:window-x="-8"
     inkscape:window-y="-8"
     inkscape:window-maximized="1"
     inkscape:current-layer="svg1740" />
  <path
     d="m 17.55,24 8.65,-8.65 2.1,2.15 -6.5,6.5 6.5,6.5 -2.1,2.15 z M 4,24 q 0,4.1 1.575,7.75 1.575,3.65 4.3,6.375 2.725,2.725 6.375,4.3 Q 19.9,44 24,44 q 4.15,0 7.8,-1.575 3.65,-1.575 6.35,-4.3 Q 40.85,35.4 42.425,31.75 44,28.1 44,24 44,19.85 42.425,16.2 40.85,12.55 38.15,9.85 35.45,7.15 31.8,5.575 28.15,4 24,4 19.9,4 16.25,5.575 12.6,7.15 9.875,9.85 7.15,12.55 5.575,16.2 4,19.85 4,24 Z m 3,0 Q 7,16.9 11.975,11.95 16.95,7 24,7 31.1,7 36.05,11.95 41,16.9 41,24 41,31.05 36.05,36.025 31.1,41 24,41 16.95,41 11.975,36.025 7,31.05 7,24 Z m 17,0 z"
     id="path1738"
     style="fill:#ffffff;fill-opacity:1" />
  <path
     style="fill:#4d4d4d;stroke-width:1.37374;paint-order:markers stroke fill"
     d="M 21.116254,40.684831 C 15.92471,39.813477 11.203718,36.245888 8.7197854,31.316989 6.819541,27.546308 6.6146925,21.953933 8.2248858,17.8062 9.7351908,13.915771 13.093275,10.396549 17.031539,8.5769591 21.782746,6.3817667 27.972471,6.6943938 32.554913,9.3610048 c 1.993526,1.1600712 4.887806,4.0578122 6.076885,6.0841522 3.224783,5.495439 2.969761,12.74592 -0.635126,18.057158 -1.709084,2.518069 -4.688636,4.974065 -7.433555,6.127358 -2.589363,1.087933 -6.589555,1.534731 -9.446863,1.055158 z m 6.26139,-9.056715 1.10017,-1.111771 -3.279423,-3.283222 -3.279422,-3.283224 3.230398,-3.226442 3.230397,-3.226441 -0.964448,-1.051318 c -0.530448,-0.578224 -1.04835,-1.060718 -1.150896,-1.072207 -0.102546,-0.01149 -2.141188,1.93518 -4.530316,4.325931 l -4.343869,4.346821 4.343869,4.346821 c 2.389128,2.390751 4.388758,4.34682 4.44362,4.34682 0.05486,0 0.594828,-0.500296 1.19992,-1.111768 z"
     id="path1608" />
  <path
     style="fill:#4d4d4d;stroke-width:0.97138;paint-order:markers stroke fill"
     d="M 22.627417,40.785448 C 20.101382,40.650347 18.07571,40.044334 15.826112,38.750726 13.981998,37.690287 12.576317,36.528153 11.105227,34.847776 8.3160388,31.661781 7.0677259,28.054373 7.1932971,23.542977 7.2926994,19.971756 8.090677,17.348311 9.8787121,14.714361 11.915689,11.713694 15.081731,9.2256362 18.346039,8.0602474 20.959918,7.127068 24.638377,6.8907893 27.466807,7.4743926 c 2.224921,0.4590786 4.75717,1.5481345 6.261646,2.6929754 1.175269,0.894329 3.597378,3.364593 4.311776,4.397499 1.256752,1.817067 2.245985,4.290646 2.622839,6.558415 0.278686,1.677039 0.191543,4.968203 -0.173159,6.539716 -0.510982,2.201836 -1.664301,4.742563 -2.892158,6.371332 -1.963132,2.604121 -5.248269,5.04921 -7.96598,5.928984 -1.132805,0.36671 -2.799055,0.691246 -4.061482,0.791056 -0.46759,0.03697 -0.938449,0.07955 -1.046354,0.09462 -0.107906,0.01507 -0.961339,-0.01352 -1.896518,-0.06354 z m 4.753243,-9.177762 1.085228,-1.090896 -2.984632,-3.002696 c -1.641548,-1.651482 -3.0992,-3.135004 -3.239224,-3.296714 l -0.254592,-0.29402 3.183153,-3.185144 3.183155,-3.185143 -0.269974,-0.373002 c -0.148487,-0.205151 -0.628492,-0.725165 -1.06668,-1.155589 l -0.796706,-0.782587 -4.412371,4.415575 -4.412373,4.415575 4.331095,4.312767 c 2.382102,2.372022 4.384553,4.312767 4.449894,4.312767 0.06534,0 0.607153,-0.490902 1.204027,-1.090893 z"
     id="path1812" />
</svg>
