<?xml version="1.0" encoding="UTF-8" standalone="no"?>
<!-- Created with Inkscape (http://www.inkscape.org/) -->

<svg
   xmlns:dc="http://purl.org/dc/elements/1.1/"
   xmlns:cc="http://creativecommons.org/ns#"
   xmlns:rdf="http://www.w3.org/1999/02/22-rdf-syntax-ns#"
   xmlns:svg="http://www.w3.org/2000/svg"
   xmlns="http://www.w3.org/2000/svg"
   xmlns:sodipodi="http://sodipodi.sourceforge.net/DTD/sodipodi-0.dtd"
   xmlns:inkscape="http://www.inkscape.org/namespaces/inkscape"
   width="210mm"
   height="297mm"
   viewBox="0 0 210 297"
   version="1.1"
   id="svg8"
   sodipodi:docname="mr vetor.svg"
   inkscape:version="0.92.4 (5da689c313, 2019-01-14)">
  <defs
     id="defs2" />
  <sodipodi:namedview
     id="base"
     pagecolor="#ffffff"
     bordercolor="#666666"
     borderopacity="1.0"
     inkscape:pageopacity="0.0"
     inkscape:pageshadow="2"
     inkscape:zoom="0.40315403"
     inkscape:cx="259.71593"
     inkscape:cy="535.4731"
     inkscape:document-units="mm"
     inkscape:current-layer="layer1"
     showgrid="false"
     inkscape:window-width="1600"
     inkscape:window-height="837"
     inkscape:window-x="-8"
     inkscape:window-y="-8"
     inkscape:window-maximized="1" />
  <metadata
     id="metadata5">
    <rdf:RDF>
      <cc:Work
         rdf:about="">
        <dc:format>image/svg+xml</dc:format>
        <dc:type
           rdf:resource="http://purl.org/dc/dcmitype/StillImage" />
        <dc:title></dc:title>
      </cc:Work>
    </rdf:RDF>
  </metadata>
  <g
     inkscape:label="Layer 1"
     inkscape:groupmode="layer"
     id="layer1">
    <g
       id="g3730"
       transform="matrix(2.3743946,0,0,2.4451451,-154.91309,-109.90417)"
       style="opacity:1;stroke:none;stroke-opacity:1">
      <path
         style="fill:#803300;stroke:none;stroke-width:0.66649497;stroke-opacity:1"
         d="m 67.815166,116.56358 c 0,-18.194575 0.227358,-33.08105 0.505239,-33.08105 0.277881,0 3.534866,3.119198 7.237747,6.931551 l 6.732506,6.931535 v 26.149524 26.14949 h -7.237746 -7.237746 z m 69.087574,2.53775 V 88.558006 L 123.24489,102.55986 109.58704,116.5617 89.030093,95.46108 68.473144,74.36046 v -9.443769 -9.44375 l 20.564373,21.092295 20.564363,21.0923 20.2302,-20.757377 20.2302,-20.757391 v 46.750942 46.75092 h -6.57977 -6.57977 z"
         id="path3726"
         inkscape:connector-curvature="0" />
      <path
         inkscape:connector-curvature="0"
         id="path3724"
         d="m 67.659926,120.43787 c 0,-18.19458 0.227358,-33.081054 0.505239,-33.081054 0.277881,0 3.534866,3.1192 7.237747,6.93155 l 6.732506,6.931534 v 26.14952 26.14949 h -7.237746 -7.237746 z m 69.087574,2.53774 V 92.432296 L 123.08966,106.43414 109.43181,120.43599 88.874853,99.335363 68.317904,78.234746 v -9.44376 -9.44375 l 20.564373,21.09229 20.564373,21.092294 20.2302,-20.757374 20.2302,-20.75739 v 46.750934 46.75092 h -6.57977 -6.57977 z"
         style="fill:#000000;stroke:none;stroke-width:0.66649497;stroke-opacity:1" />
    </g>
    <g
       style="opacity:1;stroke:none;stroke-opacity:1"
       transform="matrix(2.3743946,0,0,2.4451451,-154.91309,-109.90417)"
       id="g6141">
      <path
         inkscape:connector-curvature="0"
         id="path6137"
         d="m 67.815166,116.56358 c 0,-18.194575 0.227358,-33.08105 0.505239,-33.08105 0.277881,0 3.534866,3.119198 7.237747,6.931551 l 6.732506,6.931535 v 26.149524 26.14949 h -7.237746 -7.237746 z m 69.087574,2.53775 V 88.558006 L 123.24489,102.55986 109.58704,116.5617 89.030093,95.46108 68.473144,74.36046 v -9.443769 -9.44375 l 20.564373,21.092295 20.564363,21.0923 20.2302,-20.757377 20.2302,-20.757391 v 46.750942 46.75092 h -6.57977 -6.57977 z"
         style="fill:#803300;stroke:none;stroke-width:0.66649497;stroke-opacity:1" />
      <path
         style="fill:#000000;stroke:none;stroke-width:0.66649497;stroke-opacity:1"
         d="m 67.659926,120.43787 c 0,-18.19458 0.227358,-33.081054 0.505239,-33.081054 0.277881,0 3.534866,3.1192 7.237747,6.93155 l 6.732506,6.931534 v 26.14952 26.14949 h -7.237746 -7.237746 z m 69.087574,2.53774 V 92.432296 L 123.08966,106.43414 109.43181,120.43599 88.874853,99.335363 68.317904,78.234746 v -9.44376 -9.44375 l 20.564373,21.09229 20.564373,21.092294 20.2302,-20.757374 20.2302,-20.75739 v 46.750934 46.75092 h -6.57977 -6.57977 z"
         id="path6139"
         inkscape:connector-curvature="0" />
    </g>
  </g>
</svg>
