<?xml version="1.0" encoding="UTF-8" standalone="no"?>
<!-- Created with Inkscape (http://www.inkscape.org/) -->

<svg
   xmlns:dc="http://purl.org/dc/elements/1.1/"
   xmlns:cc="http://creativecommons.org/ns#"
   xmlns:rdf="http://www.w3.org/1999/02/22-rdf-syntax-ns#"
   xmlns:svg="http://www.w3.org/2000/svg"
   xmlns="http://www.w3.org/2000/svg"
   xmlns:sodipodi="http://sodipodi.sourceforge.net/DTD/sodipodi-0.dtd"
   xmlns:inkscape="http://www.inkscape.org/namespaces/inkscape"
   version="1.1"
   id="svg7169"
   width="1106.4"
   height="331.20001"
   viewBox="0 0 1106.4 331.20001"
   sodipodi:docname="uvc cortado.svg"
   inkscape:version="0.92.4 (5da689c313, 2019-01-14)">
  <metadata
     id="metadata7175">
    <rdf:RDF>
      <cc:Work
         rdf:about="">
        <dc:format>image/svg+xml</dc:format>
        <dc:type
           rdf:resource="http://purl.org/dc/dcmitype/StillImage" />
        <dc:title></dc:title>
      </cc:Work>
    </rdf:RDF>
  </metadata>
  <defs
     id="defs7173" />
  <sodipodi:namedview
     pagecolor="#ffffff"
     bordercolor="#666666"
     borderopacity="1"
     objecttolerance="10"
     gridtolerance="10"
     guidetolerance="10"
     inkscape:pageopacity="0"
     inkscape:pageshadow="2"
     inkscape:window-width="1600"
     inkscape:window-height="837"
     id="namedview7171"
     showgrid="false"
     inkscape:zoom="0.9577091"
     inkscape:cx="558.84783"
     inkscape:cy="45.292304"
     inkscape:window-x="-8"
     inkscape:window-y="-8"
     inkscape:window-maximized="1"
     inkscape:current-layer="svg7169" />
  <path
     style="fill:#000000;stroke-width:2.4000001"
     d="m 530.13489,301.64417 c -8.85279,-16.83 -16.07417,-31.68 -16.04751,-33 0.0266,-1.32 30.71134,-57.48 68.1882,-124.80001 l 68.13975,-122.399998 41.53361,-0.65762 c 24.39038,-0.38618 41.19549,0.2482 40.71444,1.53693 -0.45058,1.207 -38.49296,71.43293 -84.53866,156.057618 L 564.4053,332.24417 h -9.08724 -9.08724 z M 110.66451,323.53879 C 89.508866,319.00011 71.331338,310.86847 52.83214,297.6677 32.897966,283.44298 21.212369,270.01238 12.175855,250.94028 L 4.6441581,235.04417 3.9314771,125.24416 3.2187961,15.444162 h 33.7126819 33.71268 v 94.416668 94.41667 l 7.312394,14.6334 c 18.634798,37.29152 61.414738,52.18 97.754338,34.02088 16.76761,-8.37888 27.52127,-19.52651 35.6255,-36.93066 5.64378,-12.12024 5.66095,-12.44144 5.68432,-106.35696 l 0.0234,-94.199998 h 33.71268 33.71268 l -0.71268,109.930348 -0.71268,109.93036 -9.04754,18.30061 c -26.2376,53.07108 -98.23678,83.89872 -163.33211,69.93331 z m 807.17965,-6.86692 C 860.54106,303.77772 810.98202,253.70719 799.0426,196.64417 780.23438,106.75246 839.4651,22.102022 930.85022,8.269432 c 64.48209,-9.7604 132.40108,26.16658 161.02038,85.17473 4.4815,9.239998 9.7607,22.469998 11.7315,29.399998 l 3.5834,12.6 -34.0707,-0.006 -34.0706,-0.006 -6.8396,-13.09002 c -36.22234,-69.323518 -137.21818,-63.136548 -164.81377,10.0969 -4.30056,11.41285 -5.03971,17.54789 -4.26561,35.40501 0.82005,18.91759 1.93334,23.46341 8.96469,36.60503 9.72317,18.17262 24.66701,32.4468 42.93389,41.00999 11.91922,5.58751 16.61789,6.38196 37.62036,6.36079 21.2843,-0.0216 25.52532,-0.77086 37.4801,-6.62294 16.05814,-7.86078 35.66124,-26.71701 41.70214,-40.11345 l 4.3468,-9.6393 h 34.4355 c 18.9395,0 34.4355,0.91092 34.4355,2.02428 0,4.89048 -10.0542,30.55594 -17.283,44.1186 -9.6912,18.18261 -34.2114,43.44528 -53.54,55.16121 -33.0698,20.04507 -80.07459,28.09222 -116.37704,19.92361 z M 480.31686,209.43258 C 477.0441,203.71895 454.69972,163.40416 430.66269,119.84416 406.62566,76.284162 384.32265,36.054162 381.10041,30.444162 l -5.85859,-10.2 h 41.84508 41.84508 l 34.19594,61.8 c 18.80779,33.989998 34.18397,62.879998 34.16933,64.199998 -0.024,2.1062 -37.51047,70.05738 -40.05005,72.59696 -0.53892,0.53893 -3.65758,-3.69491 -6.93034,-9.40854 z"
     id="path7179"
     inkscape:connector-curvature="0" />
</svg>
