<?xml version="1.0" encoding="UTF-8" standalone="no"?>
<svg
   height="48"
   width="48"
   version="1.1"
   id="svg1740"
   sodipodi:docname="arrow_circle_right_FILL0_wght400_GRAD0_opsz48.svg"
   inkscape:version="1.1.2 (b8e25be833, 2022-02-05)"
   xmlns:inkscape="http://www.inkscape.org/namespaces/inkscape"
   xmlns:sodipodi="http://sodipodi.sourceforge.net/DTD/sodipodi-0.dtd"
   xmlns="http://www.w3.org/2000/svg"
   xmlns:svg="http://www.w3.org/2000/svg">
  <defs
     id="defs1744" />
  <sodipodi:namedview
     id="namedview1742"
     pagecolor="#505050"
     bordercolor="#eeeeee"
     borderopacity="1"
     inkscape:pageshadow="0"
     inkscape:pageopacity="0"
     inkscape:pagecheckerboard="0"
     showgrid="false"
     inkscape:zoom="10.8125"
     inkscape:cx="20.901734"
     inkscape:cy="20.439306"
     inkscape:window-width="1366"
     inkscape:window-height="705"
     inkscape:window-x="-8"
     inkscape:window-y="-8"
     inkscape:window-maximized="1"
     inkscape:current-layer="svg1740" />
  <path
     d="m 30.45,24 -8.65,-8.65 -2.1,2.15 6.5,6.5 -6.5,6.5 2.1,2.15 z M 44,24 q 0,4.1 -1.575,7.75 -1.575,3.65 -4.3,6.375 Q 35.4,40.85 31.75,42.425 28.1,44 24,44 19.85,44 16.2,42.425 12.55,40.85 9.85,38.125 7.15,35.4 5.575,31.75 4,28.1 4,24 4,19.85 5.575,16.2 7.15,12.55 9.85,9.85 12.55,7.15 16.2,5.575 19.85,4 24,4 q 4.1,0 7.75,1.575 3.65,1.575 6.375,4.275 2.725,2.7 4.3,6.35 Q 44,19.85 44,24 Z m -3,0 Q 41,16.9 36.025,11.95 31.05,7 24,7 16.9,7 11.95,11.95 7,16.9 7,24 7,31.05 11.95,36.025 16.9,41 24,41 31.05,41 36.025,36.025 41,31.05 41,24 Z m -17,0 z"
     id="path1738"
     style="fill:#ffffff;fill-opacity:1" />
  <path
     style="fill:#4d4d4d;stroke-width:0.686869;paint-order:markers stroke fill"
     d="m 22.566474,40.905744 c -1.05848,-0.07328 -2.853168,-0.439758 -4.002222,-0.817265 -2.328535,-0.765009 -4.315528,-1.97767 -6.192121,-3.77905 C 9.6513432,33.69769 8.1313877,31.009729 7.3757582,27.473606 7.1440829,26.389434 7.1275657,26.158267 7.1275657,24 c 0,-2.162094 0.016217,-2.38806 0.2499054,-3.482065 0.5647451,-2.643844 1.4430806,-4.591658 3.0063209,-6.666877 2.422361,-3.21571 5.880091,-5.5067563 9.593087,-6.3562516 2.126388,-0.4864958 4.91319,-0.5640308 7.028901,-0.1955596 3.30973,0.5764207 6.169128,2.0338127 8.631125,4.3991532 2.229637,2.142103 3.614915,4.270054 4.446943,6.831034 0.659937,2.031281 0.792709,2.93932 0.793132,5.424323 2.78e-4,1.719385 -0.03532,2.366613 -0.170487,3.098266 -0.861582,4.663741 -3.579458,8.646284 -7.758732,11.368982 -2.861758,1.864368 -6.559192,2.749341 -10.381287,2.484739 z M 26.196163,28.370315 C 28.548966,26.017919 30.473988,24.051278 30.473988,24 c 0,-0.122116 -8.527134,-8.647399 -8.649276,-8.647399 -0.05149,0 -0.571109,0.478843 -1.154701,1.064094 l -1.061076,1.064096 3.258958,3.259927 3.258956,3.259928 -3.259118,3.259119 -3.25912,3.25912 1.061238,1.064257 c 0.583681,0.585341 1.103369,1.064257 1.154863,1.064257 0.05149,0 2.018647,-1.924688 4.371451,-4.277084 z"
     id="path1694" />
</svg>
